# xmcd
#
# Track frame offsets: 
#        150
#        19994
#        34182
#        54452
#        72154
#        91348
#        112451
#        135854
#        155579
#        173906
#        193342
#        211519
#
# Disc length: 3021 seconds
#
# Revision: 0
# Processed by: cddbd v1.5.2PL0 Copyright (c) Steve Scherf et al.
# Submitted via: ExactAudioCopy v0.95b4
#
DISCID=a70bcb0c
DTITLE=Rahsaan Patterson - Wine and Spirits
DYEAR=2007
DGENRE=R&B
TTITLE0=Cloud 9
TTITLE1=Delirium (Comes and Goes)
TTITLE2=Feels Good
TTITLE3=No Danger
TTITLE4=Pitch Black
TTITLE5=Time (featuring Johnny Onyx)
TTITLE6=Stop Breaking My Heart
TTITLE7=Water
TTITLE8=Deliver Me
TTITLE9=Oh Lord (Take Me Back)
TTITLE10=Higher Love
TTITLE11=Stars
EXTD=
EXTT0=
EXTT1=
EXTT2=
EXTT3=
EXTT4=
EXTT5=
EXTT6=
EXTT7=
EXTT8=
EXTT9=
EXTT10=
EXTT11=
PLAYORDER=
